<?xml version="1.0" standalone="no"?>
<!DOCTYPE svg PUBLIC "-//W3C//DTD SVG 20010904//EN"
 "http://www.w3.org/TR/2001/REC-SVG-20010904/DTD/svg10.dtd">
<svg version="1.0" xmlns="http://www.w3.org/2000/svg"
 width="128.000000pt" height="128.000000pt" viewBox="0 0 128.000000 128.000000"
 preserveAspectRatio="xMidYMid meet">
<metadata>
Created by potrace 1.14, written by Peter Selinger 2001-2017
</metadata>
<g transform="translate(0.000000,128.000000) scale(0.100000,-0.100000)"
fill="#000000" stroke="none">
<path d="M500 949 c-19 -6 -50 -22 -69 -36 -30 -23 -33 -30 -27 -61 3 -20 17
-46 31 -59 79 -74 74 -222 -12 -312 -19 -20 -23 -33 -19 -60 6 -40 25 -56 90
-76 128 -39 274 6 260 80 -3 15 -18 44 -34 64 -64 80 -75 191 -26 271 15 25
36 56 46 70 27 34 15 78 -29 104 -39 23 -157 31 -211 15z"/>
<path d="M849 844 c-89 -26 -143 -101 -143 -199 0 -122 85 -208 206 -208 180
0 276 220 152 348 -61 63 -133 83 -215 59z"/>
<path d="M224 747 c-62 -35 -81 -103 -45 -163 52 -85 188 -59 206 39 8 42 -14
95 -47 116 -28 18 -89 22 -114 8z"/>
</g>
</svg>
